**ABCDEFGHIJKLMNOPQRSTUVWXYZabcdefghijklmnopqrstuvwxyz**************************
**PARASOLID !"#$%&'()*+,-./:;<=>?@[\]^_`{|}~0123456789**************************
**PART1;
MC=unknown;
MC_MODEL=unknown;
MC_ID=unknown;
OS=unknown;
OS_RELEASE=unknown;
FRU=Parasolid 31.0.249;
APPL=Onshape;
SITE=unknown;
USER=unknown;
FORMAT=text;
GUISE=transmit;
KEY=BTGapi::writeModels_.xmt;
FILE=BTGapi::writeModels_.xmt;
DATE=2019-02-08T19:21:49 (UTC);
**PART2;
SCH=SCH_3100249_31001;
USFLD_SIZE=0;
**PART3;
**END_OF_HEADER*****************************************************************
T51 : TRANSMIT FILE created by modeller version 310024923 SCH_3100249_31001_1300
6215 0 12 34 CCCCCCI4 mesh1006 0 I8 polyline1008 0 CCCCCCCDI5 owner1040 0 CCCCCC
I13 boundary_mesh1006 0 I17 boundary_polyline1008 0 CCCA16 index_map_offset0 0 1
 dA9 index_map82 0 A17 node_id_index_map82 0 A20 schema_embedding_map82 0 A5 chi
ld12 0 A14 lowest_node_id0 0 1 dA16 mesh_offset_data206 0 Z1 1961 2 3 0 0 0 0 0
 0 1e3 1e-8 0 4 5 1 0 1 1 6 7 8 9 0 0 10 11 12 0 0 0 0 0 0 0 81 255 1 2 1929 13
 1 14 0 0 0 15 70 11 CI9 list_type0 0 1 uI10 notransmit0 0 1 lCCCDCCDI12 finger_
index0 0 1 dI12 finger_block1012 0 CZ3 0 4 T1 0 0 5 20 1 16 16 13 255 6 137 0 1
 0 17 0 0 18 0 50 255 7 132 0 19 20 0 0 +0 .032 .002 -2071311613106635e-31 1 0 -
1 -2071311613106635e-31 0 30 255 8 136 0 11 21 0 0 +-.067 .032 .002 0 0 -1 29 25
5 9 1649 0 12 22 0 .013 -.004 .002 19 8 CCCCCCCA5 owner12 0 Z10 48 0 1 18 0 23 V
0 16 255 11 120 24 ?25 0 26 8 0 0 1 18 255 12 1647 27 28 0 29 9 ?1 81 1 27 1901
 30 12 0 0 31 32 33 17 255 28 0 34 35 36 12 37 38 0 39 +18 29 1609 40 41 12 42 2
2 ?1 81 1 40 1898 30 29 0 0 43 44 45 17 41 0 46 47 48 29 49 50 0 51 +18 42 680 5
2 53 29 54 55 ?1 29 22 1611 0 29 55 9 .013 .004 0 29 55 682 0 42 56 22 .023 .027
7 .002 29 56 679 0 54 57 55 .043 .032 .002 18 54 675 58 59 42 60 56 ?1 29 57 674
 0 60 61 56 .023 .032 .002 18 60 670 62 63 54 64 57 ?1 29 61 534 0 64 65 57 .043
 -.0277 .002 18 64 532 66 67 60 68 61 ?1 29 65 378 0 68 69 61 -.023 -.0277 .002
 18 68 376 70 71 64 72 65 ?1 29 69 375 0 72 73 65 -.023 -.032 .002 18 72 371 74
 75 68 76 69 ?1 29 73 370 0 76 77 69 -.043 -.032 .002 18 76 366 78 79 72 80 73 ?
1 29 77 230 0 80 81 73 -.023 .0277 .002 18 80 228 82 83 76 84 77 ?1 29 81 224 0
 84 85 77 -.023 .032 .002 18 84 220 86 87 80 88 81 ?1 29 85 219 0 88 89 81 -.043
 .032 .002 18 88 215 90 91 84 92 85 ?1 29 89 113 0 93 94 85 .067 .032 0 18 93 92
 95 96 97 98 89 ?1 29 94 114 0 98 99 89 .067 -.032 0 18 98 96 100 101 93 102 94
 ?1 29 99 115 0 102 103 94 -.067 -.032 0 18 102 100 104 105 98 106 99 ?1 29 103
 116 0 106 107 99 -.067 .032 0 18 106 104 108 25 102 109 103 ?1 29 107 44 0 92 1
10 103 .067 .032 .002 18 92 42 111 112 88 113 107 ?1 29 110 39 0 113 114 107 .06
7 -.032 .002 18 113 37 115 116 92 117 110 ?1 29 114 34 0 117 118 110 -.067 -.032
 .002 18 117 32 119 120 113 97 114 ?1 29 118 29 0 97 121 114 -.067 .032 .002 18
 97 27 122 123 117 93 118 ?1 29 121 351 0 124 125 118 -.043 .0277 .002 18 124 29
4 126 127 128 129 121 ?1 29 125 354 0 109 130 121 -.043 .032 .028 18 109 290 131
 132 106 133 125 ?1 29 130 355 0 133 134 125 -.043 .0277 .028 18 133 302 135 136
 109 137 130 ?1 29 134 356 0 137 138 130 -.023 .0277 .028 18 137 304 139 140 133
 128 134 ?1 29 138 357 0 128 141 134 -.023 .032 .028 18 128 298 142 143 137 124
 138 ?1 29 141 503 0 144 145 138 -.043 -.0277 .002 18 144 445 146 147 148 149 14
1 ?1 29 145 507 0 129 150 141 -.043 -.0277 .028 18 129 451 151 152 124 153 145 ?
1 29 150 508 0 153 154 145 -.023 -.0277 .028 18 153 457 155 156 129 157 150 ?1 2
9 154 509 0 157 158 150 -.023 -.032 .028 18 157 455 159 160 153 148 154 ?1 29 15
8 510 0 148 161 154 -.043 -.032 .028 18 148 443 162 163 157 144 158 ?1 29 161 65
6 0 164 165 158 .043 -.032 .002 18 164 610 166 167 168 169 161 ?1 29 165 658 0 1
69 170 161 .023 -.0277 .002 18 169 604 171 172 164 173 165 ?1 29 170 659 0 173 1
74 165 .023 -.032 .002 18 173 596 175 176 169 177 170 ?1 29 174 660 0 149 178 17
0 .043 -.032 .028 18 149 600 179 180 144 181 174 ?1 29 178 661 0 181 182 174 .04
3 -.0277 .028 18 181 606 183 184 149 185 178 ?1 29 182 662 0 185 186 178 .023 -.
0277 .028 18 185 608 187 188 181 168 182 ?1 29 186 663 0 168 189 182 .023 -.032
 .028 18 168 602 190 191 185 164 186 ?1 29 189 809 0 192 193 186 .043 .0277 .002
 18 192 759 194 195 196 197 189 ?1 29 193 811 0 177 198 189 .023 .032 .028 18 17
7 747 199 200 173 201 193 ?1 29 198 812 0 201 202 193 .023 .0277 .028 18 201 761
 203 204 177 205 198 ?1 29 202 813 0 205 206 198 .043 .0277 .028 18 205 753 207
 208 201 196 202 ?1 29 206 814 0 196 209 202 .043 .032 .028 18 196 757 210 211 2
05 192 206 ?1 29 209 1878 0 212 213 206 -.013 .004 .002 18 212 1806 214 215 216
 217 209 ?1 29 213 1879 0 217 218 209 -.013 -.004 .002 18 217 1810 44 36 212 219
 213 ?1 29 218 1881 0 219 220 213 .013 .004 .002 18 219 1818 43 47 217 0 218 ?1
 29 220 1882 0 197 221 218 -.013 .004 0 18 197 1808 222 48 192 223 220 ?1 29 221
 1883 0 223 224 220 -.013 -.004 0 18 223 1812 31 225 197 216 221 ?1 29 224 1884
 0 216 0 221 .013 -.004 0 18 216 1816 32 35 223 212 224 ?1 81 1 32 1902 30 216 0
 0 27 226 227 17 35 0 34 228 28 216 39 229 0 230 -15 255 34 1831 0 28 231 0 17 2
28 0 34 36 35 223 232 233 0 234 -17 39 0 235 236 230 12 35 229 0 237 +16 229 177
3 238 ?39 239 240 241 0 0 1 17 230 0 235 39 51 216 242 243 0 232 +15 235 1835 0
 236 244 0 17 51 0 235 230 236 29 47 240 0 242 -17 242 0 245 49 232 29 230 243 0
 0 -16 243 1789 246 ?230 233 247 248 0 0 1 17 232 0 245 242 234 216 228 233 0 0
 +15 245 1625 0 49 249 250 17 234 0 245 232 49 223 251 252 0 0 +16 233 1768 253
 ?232 252 243 254 0 0 1 81 1 253 1910 30 233 0 0 255 256 257 16 252 1760 258 ?23
4 50 233 259 0 0 1 30 254 1872 0 233 248 259 0 +208166817117217e-31 -.004 0 1 20
0160401074247e-30 0 30 248 1873 0 243 260 254 0 +.013 3469446951953615e-33 0 216
840434497101e-30 -1 0 30 259 1871 0 252 254 261 0 +-.013 -1734723475976805e-33 0
 216840434497101e-30 -1 0 30 261 1870 0 50 259 262 0 +1734723475976805e-32 .004
 0 1 200160401074247e-30 0 16 50 1784 263 ?41 240 252 261 0 0 1 30 262 1869 0 26
4 261 265 0 +.013 3469446951953615e-33 .002 216840434497101e-30 -1 0 16 264 1776
 266 ?237 38 267 262 0 0 1 30 265 1868 0 38 262 268 0 +208166817117217e-31 -.004
 .002 1 200160401074247e-30 0 16 38 1799 255 ?28 269 264 265 0 0 1 30 268 1867 0
 269 265 270 0 +-.013 -1734723475976805e-33 .002 216840434497101e-30 -1 0 16 269
 1794 256 ?271 247 38 268 0 0 1 30 270 1866 0 247 268 272 0 +1734723475976805e-3
2 .004 .002 1 200160401074247e-30 0 16 247 1752 273 ?274 243 269 270 0 0 1 30 27
2 1865 0 275 270 276 0 +-.013 .004 0 0 0 1 16 275 1757 226 ?215 277 239 272 0 0
 1 30 276 1864 0 239 272 241 0 +-.013 -.004 0 0 0 1 16 239 1765 278 ?36 275 229
 276 0 0 1 30 241 1863 0 229 276 279 0 +.013 -.004 0 0 0 1 30 279 1862 0 240 241
 280 0 +.013 .004 0 0 0 1 16 240 1781 281 ?47 229 50 279 0 0 1 31 255 280 1408 0
 282 279 283 0 +.033 .0277 .015 -2071311613106635e-31 1 0 -1 -2071311613106635e-
31 0 .002 16 282 1348 284 ?285 286 287 280 0 0 1 31 283 1407 0 287 280 288 0 +.0
33 .032 .015 -2071311613106635e-31 1 0 -1 -2071311613106635e-31 0 .002 16 287 13
53 289 ?290 282 291 283 0 0 1 31 288 1406 0 291 283 292 0 +-.033 .0277 .015 2071
311613106635e-31 -1 0 -1 -2071311613106635e-31 0 .002 16 291 1377 293 ?294 287 2
77 288 0 0 1 31 292 1405 0 277 288 295 0 +-.033 .032 .015 2071311613106635e-31 -
1 0 -1 -2071311613106635e-31 0 .002 16 277 1372 296 ?297 291 275 292 0 0 1 31 29
5 1122 0 298 292 299 0 +-.033 -.0277 .015 2071311613106635e-31 -1 0 1 2071311613
106635e-31 0 .002 16 298 1062 300 ?301 302 303 295 0 0 1 31 299 1121 0 303 295 3
04 0 +-.033 -.032 .015 2071311613106635e-31 -1 0 1 2071311613106635e-31 0 .002 1
6 303 1067 305 ?306 298 307 299 0 0 1 31 304 1120 0 307 299 308 0 +.033 -.0277 .
015 -2071311613106635e-31 1 0 1 2071311613106635e-31 0 .002 16 307 1091 309 ?310
 303 286 304 0 0 1 31 308 1119 0 286 304 311 0 +.033 -.032 .015 -207131161310663
5e-31 1 0 1 2071311613106635e-31 0 .002 16 286 1086 312 ?313 307 282 308 0 0 1 3
0 311 806 0 314 308 315 0 +.043 .02985 .028 0 -1 0 16 314 723 316 ?317 318 319 3
11 0 0 1 30 315 805 0 318 311 320 0 +.033 .0277 .028 -1 0 0 16 318 717 321 ?322
 323 314 315 0 0 1 30 320 804 0 323 315 324 0 +.023 .02985 .028 0 -1 0 16 323 72
9 325 ?204 326 318 320 0 0 1 30 324 803 0 326 320 327 0 +0 .032 .028 1 207131161
3106635e-31 0 16 326 703 328 ?329 330 323 324 0 0 1 30 327 802 0 302 324 331 0 +
.043 .02985 .002 0 -1 0 16 302 737 332 ?195 333 298 327 0 0 1 30 331 801 0 333 3
27 334 0 +.033 .0277 .002 -1 0 0 16 333 742 335 ?53 319 302 331 0 0 1 30 334 800
 0 319 331 336 0 +.023 .02985 .002 0 -1 0 16 319 709 337 ?338 314 333 334 0 0 1
 30 336 798 0 339 334 340 0 +.023 .032 .028 0 0 -1 16 339 714 341 ?342 343 344 3
36 0 0 1 30 340 797 0 344 336 345 0 +.023 .0277 .028 0 0 -1 16 344 720 346 ?347
 339 348 340 0 0 1 30 345 796 0 348 340 349 0 +.043 .0277 .028 0 0 -1 16 348 726
 350 ?351 344 330 345 0 0 1 30 349 795 0 330 345 352 0 +.043 .032 .028 0 0 -1 16
 330 706 353 ?354 348 326 349 0 0 1 30 352 655 0 355 349 356 0 +.023 -.02985 .02
8 0 1 0 16 355 576 357 ?358 359 360 352 0 0 1 30 356 654 0 359 352 361 0 +.033 -
.0277 .028 -1 0 0 16 359 588 362 ?188 363 355 356 0 0 1 30 361 653 0 363 356 364
 0 +.043 -.02985 .028 0 1 0 16 363 585 365 ?184 366 359 361 0 0 1 30 364 652 0 3
66 361 367 0 +0 -.032 .028 1 2071311613106635e-31 0 16 366 582 368 ?369 370 363
 364 0 0 1 30 367 651 0 343 364 371 0 +.023 -.02985 .002 0 1 0 16 343 591 372 ?3
73 374 339 367 0 0 1 30 371 650 0 374 367 375 0 +.033 -.0277 .002 -1 0 0 16 374
 568 376 ?377 360 343 371 0 0 1 30 375 649 0 360 371 378 0 +.043 -.02985 .002 0
 1 0 16 360 560 379 ?380 355 374 375 0 0 1 30 378 647 0 381 375 382 0 +.043 -.03
2 .028 0 0 -1 16 381 565 383 ?167 384 385 378 0 0 1 30 382 646 0 385 378 386 0 +
.043 -.0277 .028 0 0 -1 16 385 573 387 ?67 381 388 382 0 0 1 30 386 645 0 388 38
2 389 0 +.023 -.0277 .028 0 0 -1 16 388 579 390 ?172 385 370 386 0 0 1 30 389 64
4 0 370 386 391 0 +.023 -.032 .028 0 0 -1 16 370 557 392 ?176 388 366 389 0 0 1
 30 391 502 0 393 389 394 0 +-.043 -.02985 .028 0 1 0 16 393 399 395 ?396 397 39
8 391 0 0 1 30 394 501 0 397 391 399 0 +0 -.032 .028 1 2071311613106635e-31 0 16
 397 427 400 ?160 401 393 394 0 0 1 30 399 500 0 401 394 402 0 +-.023 -.02985 .0
28 0 1 0 16 401 430 403 ?156 404 397 399 0 0 1 30 402 499 0 404 399 405 0 +-.033
 -.0277 .028 1 0 0 16 404 421 406 ?407 408 401 402 0 0 1 30 405 498 0 384 402 40
9 0 +-.043 -.02985 .002 0 1 0 16 384 433 410 ?147 411 381 405 0 0 1 30 409 496 0
 411 405 412 0 +-.023 -.02985 .002 0 1 0 16 411 413 413 ?414 398 384 409 0 0 1 3
0 412 495 0 398 409 415 0 +-.033 -.0277 .002 1 0 0 16 398 438 416 ?71 393 411 41
2 0 0 1 30 415 494 0 408 412 417 0 +-.043 -.0277 .028 0 0 -1 16 408 402 418 ?419
 420 404 415 0 0 1 30 417 493 0 420 415 421 0 +-.023 -.0277 .028 0 0 -1 16 420 4
24 422 ?423 424 408 417 0 0 1 30 421 492 0 424 417 425 0 +-.023 -.032 .028 0 0 -
1 16 424 418 426 ?427 428 420 421 0 0 1 30 425 491 0 428 421 429 0 +-.043 -.032
 .028 0 0 -1 16 428 410 430 ?431 432 424 425 0 0 1 30 429 349 0 433 425 434 0 +-
.023 .02985 .028 0 -1 0 16 433 268 435 ?436 437 438 429 0 0 1 30 434 348 0 437 4
29 439 0 +-.033 .0277 .028 1 0 0 16 437 277 440 ?140 441 433 434 0 0 1 30 439 34
7 0 441 434 442 0 +-.043 .02985 .028 0 -1 0 16 441 274 443 ?136 444 437 439 0 0
 1 30 442 346 0 444 439 445 0 +0 .032 .028 1 2071311613106635e-31 0 16 444 246 4
46 ?447 448 441 442 0 0 1 30 445 345 0 432 442 449 0 +-.023 .02985 .002 0 -1 0 1
6 432 285 450 ?83 451 428 445 0 0 1 30 449 344 0 451 445 452 0 +-.033 .0277 .002
 1 0 0 16 451 260 453 ?454 438 432 449 0 0 1 30 452 343 0 438 449 455 0 +-.043 .
02985 .002 0 -1 0 16 438 252 456 ?457 433 451 452 0 0 1 30 455 341 0 458 452 459
 0 +-.043 .032 .028 0 0 -1 16 458 257 460 ?461 462 463 455 0 0 1 30 459 340 0 46
3 455 464 0 +-.043 .0277 .028 0 0 -1 16 463 265 465 ?466 458 467 459 0 0 1 30 46
4 339 0 467 459 468 0 +-.023 .0277 .028 0 0 -1 16 467 271 469 ?470 463 448 464 0
 0 1 30 468 338 0 448 464 471 0 +-.023 .032 .028 0 0 -1 16 448 249 472 ?473 467
 444 468 0 0 1 30 471 9 0 474 468 475 0 +0 .032 .002 1 2071311613106635e-31 0 16
 474 7 476 ?477 478 479 471 480 479 1 30 475 14 0 478 471 481 0 +-.067 -20816681
7117217e-31 .002 0 -1 0 16 478 12 482 ?120 483 474 475 0 0 1 30 481 19 0 484 475
 485 0 +0 -.032 .002 1 2071311613106635e-31 0 16 484 17 486 ?79 487 488 481 483
 488 1 30 485 24 0 487 481 489 0 +.067 693889390390723e-32 .002 0 -1 0 16 487 22
 490 ?491 492 484 485 0 0 1 30 489 112 0 462 485 493 0 +0 .032 0 1 2071311613106
635e-31 0 16 462 88 494 ?495 496 458 489 0 0 1 30 493 111 0 496 489 497 0 +-.067
 -208166817117217e-31 0 0 -1 0 16 496 84 498 ?105 499 462 493 0 0 1 30 497 110 0
 499 493 500 0 +0 -.032 0 1 2071311613106635e-31 0 16 499 80 501 ?502 503 496 49
7 0 0 1 30 500 109 0 503 497 504 0 +.067 693889390390723e-32 0 0 -1 0 16 503 76
 505 ?506 480 499 500 0 0 1 30 504 133 0 492 500 507 0 +.067 .032 .002 0 0 -1 16
 492 117 508 ?96 509 487 504 0 0 1 30 507 134 0 509 504 21 0 +.067 -.032 .002 0
 0 -1 16 509 118 510 ?101 26 492 507 0 0 1 30 21 135 0 26 507 8 0 +-.067 -.032 .
002 0 0 -1 16 26 119 511 ?512 11 509 21 0 0 1 81 1 511 162 30 26 0 0 508 510 513
 17 512 0 514 502 515 102 516 26 0 517 +15 514 123 0 502 518 519 17 502 0 514 52
0 512 98 517 499 0 506 +17 515 0 514 512 431 117 79 484 0 0 -17 516 0 521 522 10
5 117 512 26 0 515 -17 517 0 523 524 506 102 502 499 0 0 -15 523 75 0 495 249 24
5 17 524 0 523 495 517 106 105 496 0 525 -17 506 0 523 517 495 98 526 503 0 0 +1
7 495 0 523 506 524 93 525 462 0 526 +17 526 0 527 528 101 93 506 503 0 0 -15 52
7 121 0 526 529 0 17 528 0 527 491 526 92 96 492 0 530 -17 101 0 527 526 491 98
 520 509 0 502 +17 491 0 527 101 528 113 530 487 0 0 +17 520 0 514 531 502 113 1
01 509 0 491 -17 531 0 514 532 520 164 116 483 0 0 -17 532 0 514 533 531 149 167
 381 0 0 -17 116 0 534 530 535 113 531 483 0 520 +16 483 525 536 ?116 488 478 48
1 488 484 1 81 1 536 859 30 483 0 0 486 537 538 16 488 372 537 ?539 484 483 481
 484 483 1 81 1 537 860 30 488 0 0 536 305 540 17 539 0 534 373 75 173 541 488 0
 0 +15 534 6 0 59 17 542 17 373 0 534 543 539 169 544 343 0 0 +17 75 0 534 539 7
1 72 414 411 0 541 -17 541 0 514 545 176 72 539 488 0 427 -17 545 0 514 546 541
 157 427 424 0 547 -17 176 0 514 541 533 173 191 370 0 544 +17 427 0 548 414 547
 72 545 424 0 0 +15 548 470 0 414 549 0 17 414 0 548 550 427 68 75 411 0 0 +17 5
47 0 548 427 550 157 156 401 0 0 -17 550 0 548 547 414 153 423 420 0 407 -17 156
 0 551 552 160 153 547 401 0 550 +15 551 478 0 553 554 0 17 552 0 551 553 156 12
9 407 404 0 0 -17 160 0 551 156 553 157 546 397 0 545 +17 553 0 551 160 552 148
 396 393 0 0 -17 546 0 514 431 545 148 160 397 0 553 -17 431 0 514 515 546 76 16
3 428 0 555 +17 163 0 556 396 555 148 431 428 0 546 -17 555 0 556 163 419 76 147
 384 0 0 -15 556 462 0 555 557 0 17 419 0 556 555 396 144 152 408 0 558 +17 147
 0 534 71 79 144 555 384 0 419 +17 71 0 534 75 147 68 558 398 0 423 +17 79 0 534
 147 120 76 515 484 0 431 +17 120 0 534 79 559 117 522 478 0 516 +17 559 0 534 1
20 91 97 477 474 0 0 -17 522 0 521 25 516 97 120 478 0 559 -15 521 125 0 105 560
 0 17 25 0 521 105 522 106 123 11 0 524 +17 105 0 521 516 25 102 524 496 0 512 +
17 123 0 561 477 525 97 25 11 0 522 -15 561 127 0 525 19 562 17 477 0 561 132 12
3 88 559 474 0 461 +17 525 0 561 123 96 106 495 462 0 0 -17 96 0 561 525 112 93
 528 492 0 495 +17 112 0 561 96 354 92 59 480 0 528 +17 354 0 561 112 329 54 211
 330 0 563 +17 59 0 534 195 530 54 112 480 0 354 -16 480 676 564 ?112 479 503 47
1 479 474 1 81 1 564 856 30 480 0 0 476 565 566 16 479 221 565 ?567 474 480 471
 474 480 1 81 1 565 857 30 479 0 0 564 486 568 17 567 0 561 200 473 60 87 479 0
 342 +17 200 0 561 329 567 177 342 339 0 569 -17 473 0 561 567 447 84 143 448 0
 570 +17 87 0 534 83 63 84 567 479 0 473 -17 342 0 571 338 569 60 200 339 0 0 +1
5 571 770 0 338 572 0 17 338 0 571 573 342 42 63 319 0 0 +17 569 0 571 342 573 1
77 204 323 0 574 -17 573 0 571 569 338 201 347 344 0 322 -17 204 0 575 576 574 2
01 569 323 0 573 +17 574 0 575 204 577 177 329 326 0 0 -15 575 782 0 574 578 0 1
7 577 0 575 574 576 196 317 314 0 329 -17 329 0 561 354 200 196 574 326 0 0 +17
 576 0 575 577 204 205 322 318 0 317 -17 317 0 579 351 211 205 577 314 0 0 +15 5
79 778 0 563 580 0 17 351 0 579 563 317 192 208 348 0 581 +17 211 0 579 317 563
 196 354 330 0 577 -17 563 0 579 211 351 54 195 302 0 0 -17 195 0 534 53 59 192
 563 302 0 351 +17 53 0 534 63 195 42 581 333 0 347 +17 63 0 534 87 53 60 338 31
9 0 567 -17 581 0 582 208 347 192 53 333 0 0 -17 347 0 582 581 322 42 573 344 0
 338 +15 582 774 0 581 583 0 17 322 0 582 347 208 201 576 318 0 0 +17 208 0 582
 322 581 205 351 348 0 576 -14 255 583 771 584 ?580 572 585 6 586 +0 0 580 572 2
3 81 1 584 1949 587 583 588 0 589 590 591 14 580 775 590 ?578 583 579 6 592 +0 0
 578 583 23 14 572 767 589 ?583 593 571 6 594 -0 0 583 593 23 15 585 1313 0 285
 583 582 50 586 790 0 583 594 592 0 +.033 .0277 .028 0 -1 0 0 0 -1 13 23 49 0 0
 0 0 0 0 10 17 14 17 1 595 ?249 0 596 6 597 +0 0 249 0 23 81 1 595 1930 587 17 5
98 0 0 599 600 14 249 68 599 ?19 17 601 6 602 -0 0 19 17 23 15 596 1645 0 603 17
 534 50 597 3 0 17 604 602 0 +1387778780781446e-32 0 .002 0 0 1 1 0 0 50 604 332
 0 605 606 597 0 +-.023 .02985 .028 1 0 0 0 0 -1 50 602 108 0 249 597 607 0 +138
7778780781446e-32 0 0 0 0 1 1 0 0 50 607 129 0 529 602 608 0 +.067 6938893903907
23e-32 .002 1 0 0 0 0 -1 14 529 122 609 ?610 560 527 6 607 +0 0 610 560 23 50 60
8 130 0 518 607 20 0 +0 -.032 .002 -2071311613106635e-31 1 0 -1 -207131161310663
5e-31 0 14 518 124 611 ?560 19 514 6 608 -0 0 560 19 23 50 20 131 0 560 608 7 0
 +-.067 -208166817117217e-31 .002 1 0 0 0 0 -1 14 560 126 612 ?529 518 521 6 20
 -0 0 529 518 23 81 1 612 1934 587 560 613 0 611 609 614 80 255 1 587 0 615 8001
 0 0 0 0 3 5 0 0 0 FFFFTFTFFFFFFF2 81 1 613 176 30 560 0 612 490 616 617 81 1 61
1 1933 587 518 618 0 619 612 620 81 1 609 1935 587 529 616 0 612 621 622 83 255
 3 614 .615686274509804 .811764705882353 .929411764705882 81 1 616 177 30 529 0
 609 613 446 623 81 1 621 1936 587 610 624 0 609 625 626 83 3 622 .6156862745098
04 .811764705882353 .929411764705882 14 610 310 621 ?627 529 628 6 629 -0 0 627
 529 23 81 1 624 312 30 610 0 621 139 630 631 81 1 625 1937 587 627 632 0 621 63
3 634 83 3 626 .615686274509804 .811764705882353 .929411764705882 14 627 314 625
 ?605 610 635 6 606 -0 0 605 610 23 81 1 632 1418 30 627 0 625 636 588 637 81 1
 633 1938 587 605 630 0 625 638 639 83 3 634 .615686274509804 .811764705882353 .
929411764705882 14 605 318 633 ?640 627 641 6 604 +0 0 640 627 23 81 1 630 320 3
0 605 0 633 624 642 643 81 1 638 1939 587 640 642 0 633 644 645 83 3 639 .615686
274509804 .811764705882353 .929411764705882 14 640 322 638 ?557 605 646 6 647 +0
 0 557 605 23 81 1 642 324 30 640 0 638 630 395 648 81 1 644 1940 587 557 649 0
 638 650 651 83 3 645 .615686274509804 .811764705882353 .929411764705882 14 557
 459 644 ?549 640 556 6 652 +0 0 549 640 23 81 1 649 461 30 557 0 644 155 653 65
4 81 1 650 1941 587 549 653 0 644 655 656 83 3 651 .615686274509804 .81176470588
2353 .929411764705882 14 549 467 650 ?657 557 548 6 658 -0 0 657 557 23 81 1 653
 469 30 549 0 650 649 659 660 81 1 655 1942 587 657 661 0 650 662 663 83 3 656 .
615686274509804 .811764705882353 .929411764705882 14 657 471 655 ?554 549 664 6
 665 +0 0 554 549 23 81 1 661 1132 30 657 0 655 666 667 668 81 1 662 1943 587 55
4 659 0 655 669 670 83 3 663 .615686274509804 .811764705882353 .929411764705882
 14 554 475 662 ?671 657 551 6 672 +0 0 671 657 23 81 1 659 477 30 554 0 662 653
 392 673 81 1 669 1944 587 671 674 0 662 675 676 83 3 670 .615686274509804 .8117
64705882353 .929411764705882 14 671 616 669 ?677 554 678 6 679 -0 0 677 554 23 8
1 1 674 618 30 671 0 669 187 680 681 81 1 675 1945 587 677 667 0 669 682 683 83
 3 676 .615686274509804 .811764705882353 .929411764705882 14 677 620 675 ?684 67
1 685 6 686 -0 0 684 671 23 81 1 667 1133 30 677 0 675 661 618 687 81 1 682 1946
 587 684 680 0 675 688 689 83 3 683 .615686274509804 .811764705882353 .929411764
705882 14 684 624 682 ?593 677 690 6 691 +0 0 593 677 23 81 1 680 626 30 684 0 6
82 674 692 693 81 1 688 1947 587 593 692 0 682 589 694 83 3 689 .615686274509804
 .811764705882353 .929411764705882 14 593 628 688 ?572 684 695 6 696 +0 0 572 68
4 23 81 1 692 630 30 593 0 688 680 328 697 81 1 589 1948 587 572 698 0 688 584 6
99 83 3 694 .615686274509804 .811764705882353 .929411764705882 81 1 698 769 30 5
72 0 589 203 700 701 83 3 699 .615686274509804 .811764705882353 .929411764705882
 80 1 30 702 703 9000 0 0 0 0 3 6 0 0 0 FFTFTFTTFFFFFF1 81 1 203 762 30 201 0 0
 210 698 704 81 1 700 777 30 580 0 590 698 705 706 82 255 3 701 9 15 2 81 1 590
 1950 587 580 700 0 584 707 708 81 1 705 781 30 578 0 707 700 709 710 82 3 706 9
 19 2 14 578 779 707 ?711 580 575 6 712 +0 0 711 580 23 81 1 707 1951 587 578 70
5 0 590 713 714 81 1 709 823 30 1 0 715 705 90 716 82 3 710 9 17 2 81 1 715 1927
 717 1 709 14 0 0 718 81 1 90 824 30 88 0 0 709 86 719 82 3 716 6 0 3 81 1 86 82
5 30 84 0 0 90 126 720 82 3 719 10 0 0 81 1 126 826 30 124 0 0 86 82 721 82 3 72
0 10 1 0 81 1 82 827 30 80 0 0 126 78 722 82 3 721 10 2 0 81 1 78 828 30 76 0 0
 82 146 723 82 3 722 10 3 0 81 1 146 829 30 144 0 0 78 74 724 82 3 723 10 4 0 81
 1 74 830 30 72 0 0 146 70 725 82 3 724 10 5 0 81 1 70 831 30 68 0 0 74 166 726
 82 3 725 10 6 0 81 1 166 832 30 164 0 0 70 66 727 82 3 726 10 7 0 81 1 66 833 3
0 64 0 0 166 62 728 82 3 727 10 8 0 81 1 62 834 30 60 0 0 66 52 729 82 3 728 10
 9 0 81 1 52 835 30 42 0 0 62 175 730 82 3 729 10 10 0 81 1 175 836 30 173 0 0 5
2 171 731 82 3 730 10 11 0 81 1 171 837 30 169 0 0 175 58 732 82 3 731 10 12 0 8
1 1 58 838 30 54 0 0 171 194 733 82 3 732 10 13 0 81 1 194 839 30 192 0 0 58 453
 734 82 3 733 10 14 0 81 1 453 840 30 451 0 0 194 456 735 82 3 734 10 15 0 81 1
 456 841 30 438 0 0 453 450 736 82 3 735 10 0 1 81 1 450 842 30 432 0 0 456 410
 737 82 3 736 10 1 1 81 1 410 843 30 384 0 0 450 413 738 82 3 737 10 2 1 81 1 41
3 844 30 411 0 0 410 416 739 82 3 738 10 3 1 81 1 416 845 30 398 0 0 413 379 740
 82 3 739 10 4 1 81 1 379 846 30 360 0 0 416 337 741 82 3 740 10 5 1 81 1 337 84
7 30 319 0 0 379 372 742 82 3 741 10 6 1 81 1 372 848 30 343 0 0 337 332 743 82
 3 742 10 7 1 81 1 332 849 30 302 0 0 372 335 744 82 3 743 10 8 1 81 1 335 850 3
0 333 0 0 332 376 745 82 3 744 10 9 1 81 1 376 851 30 374 0 0 335 476 746 82 3 7
45 10 10 1 81 1 476 855 30 474 0 0 376 564 747 82 3 746 10 11 1 82 3 747 10 12 1
 80 1 717 748 749 8038 0 0 0 0 0 0 0 0 0 TTTTTTTTTTTTTF10 81 1 14 1928 748 1 715
 2 0 0 750 98 255 6 718 80 97 114 116 32 49 80 1 748 751 752 8017 0 0 0 0 0 0 0
 0 0 TTTTTTTTTTTTTF3 84 255 6 750 Part 179 255 13 752 SDL/TYSA_NAME79 14 749 SDL
/TYSA_UNAME81 1 713 1952 587 711 666 0 707 753 754 83 3 714 .615686274509804 .81
1764705882353 .929411764705882 14 711 1096 713 ?755 578 756 6 757 +0 0 755 578 2
3 81 1 666 1131 30 711 0 713 758 661 759 81 1 753 1953 587 755 758 0 713 760 761
 83 3 754 .615686274509804 .811764705882353 .929411764705882 14 755 1072 753 ?76
2 711 763 6 764 -0 0 762 711 23 81 1 758 1130 30 755 0 753 309 666 765 81 1 760
 1954 587 762 766 0 753 767 768 83 3 761 .615686274509804 .811764705882353 .9294
11764705882 14 762 1358 760 ?769 755 770 6 771 -0 0 769 755 23 81 1 766 1416 30
 762 0 760 293 636 772 81 1 767 1955 587 769 636 0 760 773 774 83 3 768 .6156862
74509804 .811764705882353 .929411764705882 14 769 1382 767 ?775 762 776 6 777 +0
 0 775 762 23 81 1 636 1417 30 769 0 767 766 632 778 81 1 773 1956 587 775 779 0
 767 780 781 83 3 774 .615686274509804 .811764705882353 .929411764705882 14 775
 1820 773 ?782 769 46 6 783 +0 0 782 769 23 81 1 779 1919 30 775 0 773 784 785 7
86 81 1 780 1957 587 782 787 0 773 788 789 83 3 781 .615686274509804 .8117647058
82353 .929411764705882 14 782 1824 780 ?231 775 790 6 791 -0 0 231 775 23 81 1 7
87 1921 30 782 0 780 785 792 793 81 1 788 1958 587 231 785 0 780 794 795 83 3 78
9 .615686274509804 .811764705882353 .929411764705882 14 231 1828 788 ?244 782 34
 6 796 -0 0 244 782 23 81 1 785 1920 30 231 0 788 779 787 797 81 1 794 1959 587
 244 792 0 788 798 799 83 3 795 .615686274509804 .811764705882353 .9294117647058
82 14 244 1832 794 ?800 231 235 6 801 +0 0 800 231 23 81 1 792 1922 30 244 0 794
 787 802 803 81 1 798 1960 587 800 802 0 794 804 805 83 3 799 .615686274509804 .
811764705882353 .929411764705882 14 800 1738 798 ?806 244 807 6 808 -0 0 806 244
 23 81 1 802 1923 30 800 0 798 792 809 810 81 1 804 1961 587 806 809 0 798 0 811
 83 3 805 .615686274509804 .811764705882353 .929411764705882 14 806 1714 804 ?0
 800 812 6 813 +0 0 0 800 23 81 1 809 1924 30 806 0 804 802 814 815 83 3 811 .61
5686274509804 .811764705882353 .929411764705882 81 1 814 1925 30 249 0 599 809 5
98 816 82 3 815 22 5 2 81 1 599 1931 587 249 814 0 595 619 817 81 1 598 1926 30
 17 0 595 814 0 818 82 3 816 22 6 2 82 3 818 22 7 2 81 1 619 1932 587 19 819 0 5
99 611 820 83 3 817 .615686274509804 .811764705882353 .929411764705882 14 19 128
 619 ?518 249 821 6 7 +0 0 518 249 23 81 1 819 1420 30 19 0 619 588 214 822 83 3
 820 .615686274509804 .811764705882353 .929411764705882 81 1 588 1419 30 583 0 5
84 632 819 823 81 1 214 1895 30 212 0 0 819 222 824 82 3 822 18 4 2 81 1 222 189
6 30 197 0 0 214 43 825 82 3 824 22 0 0 81 1 43 1897 30 219 0 0 222 40 826 82 3
 825 22 1 0 82 3 826 22 2 0 82 3 823 18 3 2 15 821 1326 0 297 19 561 17 297 0 82
1 297 297 0 827 277 0 0 +17 827 0 828 827 827 0 297 277 0 0 -15 828 1386 0 827 7
69 0 15 812 1717 0 829 806 830 51 255 813 1856 0 806 808 783 0 -.047 15308084989
3419e-33 0 0 0 1 .0025 1 0 0 51 808 1859 0 800 0 813 0 +-.047 153080849893419e-3
3 0 0 0 1 .0025 1 0 0 50 783 1853 0 775 813 791 0 +1734723475976805e-32 .004 0 2
00160401074247e-30 -1 0 1 200160401074247e-30 0 50 791 1852 0 782 783 796 0 +-.0
13 -1734723475976805e-33 0 -1 -216840434497101e-30 0 216840434497101e-30 -1 0 50
 796 1851 0 231 791 801 0 +208166817117217e-31 -.004 0 200160401074247e-30 -1 0
 1 200160401074247e-30 0 50 801 1850 0 244 796 771 0 +.013 3469446951953615e-33
 0 -1 -216840434497101e-30 0 216840434497101e-30 -1 0 51 771 1402 0 762 801 777
 0 +.033 .0277 .015 -2071311613106635e-31 1 0 .002 -1 -2071311613106635e-31 0 51
 777 1399 0 769 771 764 0 --.033 .0277 .015 -2071311613106635e-31 1 0 .002 -1 -2
071311613106635e-31 0 51 764 1116 0 755 777 757 0 +-.033 -.0277 .015 20713116131
06635e-31 -1 0 .002 1 2071311613106635e-31 0 51 757 1113 0 711 764 712 0 -.033 -
.0277 .015 2071311613106635e-31 -1 0 .002 1 2071311613106635e-31 0 50 712 794 0
 578 757 594 0 +1387778780781446e-32 -693889390390723e-32 .028 0 0 1 1 0 0 50 59
4 791 0 572 712 586 0 +.023 .02985 .028 1 0 0 0 0 -1 17 829 0 812 829 829 0 831
 832 0 0 +15 830 1718 0 833 806 0 17 833 0 830 833 833 0 834 835 0 0 -17 834 0 8
36 834 834 0 833 835 0 0 +16 835 1704 837 ?834 832 0 260 0 0 1 81 1 837 1917 30
 835 0 0 838 784 839 16 832 1709 784 ?829 840 835 841 0 0 1 31 260 1874 0 835 84
1 248 0 +.047 153080849893419e-33 .002 0 0 -1 1 0 0 .0025 31 841 1875 0 832 842
 260 0 +.047 153080849893419e-33 0 0 0 -1 1 0 0 .0025 31 842 1876 0 840 843 841
 0 +-.047 153080849893419e-33 .002 0 0 1 1 0 0 .0025 16 840 1733 844 ?845 267 83
2 842 0 0 1 31 843 1877 0 267 0 842 0 +-.047 153080849893419e-33 0 0 0 1 1 0 0 .
0025 16 267 1728 838 ?846 264 840 843 0 0 1 81 1 838 1916 30 267 0 0 844 837 847
 17 846 0 601 846 846 0 848 267 0 0 +15 601 1631 0 846 249 523 17 848 0 807 848
 848 0 846 267 0 0 -15 807 1741 0 848 800 849 15 849 1742 0 845 800 0 17 845 0 8
49 845 845 0 850 840 0 0 +17 850 0 542 850 850 0 845 840 0 0 -15 542 1667 0 850
 17 836 15 836 1673 0 834 17 0 81 1 844 1915 30 840 0 0 246 838 851 82 3 847 22
 13 1 81 1 246 1914 30 243 0 0 266 844 852 82 3 851 22 12 1 81 1 266 1913 30 264
 0 0 258 246 853 82 3 852 22 11 1 81 1 258 1912 30 252 0 0 256 266 854 82 3 853
 22 10 1 81 1 256 1911 30 269 0 0 253 258 855 82 3 854 22 9 1 82 3 855 22 8 1 81
 1 784 1918 30 832 0 0 837 779 856 82 3 856 22 15 1 82 3 839 22 14 1 17 831 0 25
0 831 831 0 829 832 0 0 -15 250 1639 0 831 249 0 82 3 810 22 4 2 82 3 803 22 3 2
 82 3 797 22 1 2 82 3 793 22 2 2 15 790 1827 0 271 782 0 17 271 0 790 225 215 21
7 603 269 0 37 +17 225 0 790 251 271 223 36 239 0 228 -17 215 0 790 271 251 212
 48 275 0 857 +17 603 0 596 274 37 212 271 269 0 0 -17 37 0 596 603 237 217 28 3
8 0 0 -17 237 0 596 37 274 12 236 264 0 0 +17 274 0 596 237 603 219 857 247 0 0
 +17 236 0 235 51 39 219 237 264 0 274 -17 857 0 46 48 47 212 274 247 0 603 -15
 46 1823 0 857 775 0 17 48 0 46 41 857 197 215 275 0 251 -17 47 0 46 857 41 219
 51 240 0 236 +17 251 0 790 215 225 197 234 252 0 49 -17 49 0 245 234 242 197 41
 50 0 0 -17 36 0 34 28 228 217 225 239 0 271 +82 3 786 22 0 2 82 3 778 18 1 2 15
 776 1385 0 294 769 828 17 294 0 776 294 294 0 858 291 0 0 +17 858 0 635 858 858
 0 294 291 0 0 -15 635 1320 0 858 627 859 15 859 317 0 454 627 0 17 454 0 859 86
0 466 80 127 451 0 0 +17 860 0 859 861 454 137 470 467 0 436 -17 466 0 859 454 8
61 124 862 463 0 0 +17 127 0 534 91 83 124 454 451 0 457 -17 91 0 534 559 127 88
 457 438 0 477 -17 83 0 534 127 87 80 570 432 0 470 +17 457 0 628 862 461 124 91
 438 0 466 +15 628 313 0 457 610 0 17 862 0 628 863 457 133 466 463 0 861 -17 46
1 0 628 457 863 88 132 458 0 0 +17 863 0 628 461 862 109 136 441 0 864 -17 132 0
 561 447 477 109 461 458 0 863 -17 447 0 561 473 132 128 864 444 0 0 +17 864 0 6
46 136 865 109 447 444 0 0 -15 646 325 0 864 640 0 17 136 0 646 140 864 133 863
 441 0 862 +17 865 0 646 864 140 128 436 433 0 447 -17 140 0 646 865 136 137 861
 437 0 860 +17 436 0 641 470 143 137 865 433 0 0 +15 641 321 0 570 605 0 17 470
 0 641 570 436 80 860 467 0 454 +17 143 0 641 436 570 128 473 448 0 865 -17 570
 0 641 143 470 84 83 432 0 0 -17 861 0 859 466 860 133 140 437 0 0 -81 1 293 141
5 30 291 0 0 296 766 866 82 3 772 18 0 2 81 1 296 1414 30 277 0 0 284 293 867 82
 3 866 18 3 1 81 1 284 1413 30 282 0 0 289 296 868 82 3 867 18 2 1 81 1 289 1412
 30 287 0 0 618 284 869 82 3 868 18 1 1 81 1 618 1134 30 518 0 611 667 289 870 8
2 3 869 18 0 1 82 3 870 14 4 2 15 770 1361 0 871 762 872 17 871 0 770 871 871 0
 285 282 0 0 -15 872 1362 0 290 762 0 17 290 0 872 290 290 0 873 287 0 0 +17 873
 0 562 873 873 0 290 287 0 0 -15 562 1334 0 873 19 0 17 285 0 585 285 285 0 871
 282 0 0 +81 1 309 1129 30 307 0 0 312 758 874 82 3 765 14 0 2 81 1 312 1128 30
 286 0 0 300 309 875 82 3 874 14 3 1 81 1 300 1127 30 298 0 0 305 312 876 82 3 8
75 14 2 1 81 1 305 1126 30 303 0 0 537 300 877 82 3 876 14 1 1 82 3 877 14 0 1 1
5 763 1075 0 878 755 879 17 878 0 763 878 878 0 301 298 0 0 -15 879 1076 0 306 7
55 0 17 306 0 879 306 306 0 880 303 0 0 +17 880 0 881 880 880 0 306 303 0 0 -15
 881 1047 0 880 518 0 17 301 0 664 301 301 0 878 298 0 0 +15 664 1034 0 301 657
 882 15 882 474 0 558 657 0 17 558 0 882 152 423 144 71 398 0 0 -17 152 0 882 40
7 558 129 419 408 0 396 -17 423 0 882 558 407 68 550 420 0 414 +17 407 0 882 423
 152 153 552 404 0 0 +17 396 0 556 419 163 129 553 393 0 552 +82 3 759 14 1 2 15
 756 1099 0 310 711 883 17 310 0 756 310 310 0 884 307 0 0 +15 883 1100 0 885 71
1 0 17 885 0 883 885 885 0 313 286 0 0 -17 313 0 519 313 313 0 885 286 0 0 +15 5
19 1041 0 313 518 881 17 884 0 685 884 884 0 310 307 0 0 -15 685 1027 0 884 677
 886 15 886 623 0 377 677 0 17 377 0 886 887 67 169 543 374 0 373 +17 887 0 886
 888 377 185 172 388 0 358 -17 67 0 886 377 888 64 889 385 0 380 +17 543 0 534 5
35 373 64 377 374 0 0 -17 535 0 534 116 543 164 380 360 0 531 -17 380 0 678 889
 167 64 535 360 0 543 +15 678 619 0 380 671 0 17 889 0 678 180 380 181 67 385 0
 888 -17 167 0 678 380 180 164 532 381 0 535 +17 180 0 678 167 889 149 184 363 0
 369 -17 184 0 695 188 369 181 180 363 0 889 +17 369 0 695 184 890 149 533 366 0
 532 +15 695 631 0 369 593 0 17 890 0 695 369 188 168 358 355 0 0 -17 533 0 514
 176 532 168 369 366 0 890 -17 188 0 695 890 184 185 888 359 0 887 +17 358 0 690
 172 191 185 890 355 0 0 +15 690 627 0 544 684 0 17 172 0 690 544 358 169 887 38
8 0 377 +17 191 0 690 358 544 168 176 370 0 533 -17 544 0 690 191 172 173 373 34
3 0 539 -17 888 0 886 67 887 181 188 359 0 0 -83 3 708 .615686274509804 .8117647
05882353 .929411764705882 81 1 210 758 30 196 0 0 207 203 891 82 3 704 9 23 0 81
 1 207 754 30 205 0 0 199 210 892 82 3 891 9 29 0 81 1 199 748 30 177 0 0 325 20
7 893 82 3 892 9 31 0 81 1 325 731 30 323 0 0 350 199 894 82 3 893 9 21 0 81 1 3
50 728 30 348 0 0 316 325 895 82 3 894 9 35 1 81 1 316 725 30 314 0 0 346 350 89
6 82 3 895 9 15 1 81 1 346 722 30 344 0 0 321 316 897 82 3 896 9 39 1 81 1 321 7
19 30 318 0 0 341 346 898 82 3 897 9 11 1 81 1 341 716 30 339 0 0 353 321 899 82
 3 898 9 45 1 81 1 353 708 30 330 0 0 328 341 900 82 3 899 9 10 1 81 1 328 705 3
0 326 0 0 692 353 901 82 3 900 9 14 1 82 3 901 9 43 1 79 9 703 BTI/DetId82 3 697
 9 14 2 50 696 643 0 593 592 679 0 +1387778780781446e-32 -693889390390723e-32 .0
28 0 0 1 1 0 0 50 592 789 0 580 586 696 0 +.043 .02985 .028 1 0 0 0 0 -1 50 679
 640 0 671 696 686 0 +.043 -.02985 .028 -1 0 0 0 0 1 50 686 639 0 677 679 691 0
 +.033 -.0277 .028 0 -1 0 0 0 -1 50 691 638 0 684 686 672 0 +.023 -.02985 .028 -
1 0 0 0 0 1 50 672 490 0 554 691 665 0 +1387778780781446e-32 -693889390390723e-3
2 .028 0 0 1 1 0 0 50 665 488 0 657 672 658 0 +-.033 -.0277 .028 0 1 0 0 0 1 50
 658 487 0 549 665 652 0 +-.023 -.02985 .028 -1 0 0 0 0 1 50 652 485 0 557 658 6
47 0 +-.043 -.02985 .028 -1 0 0 0 0 1 50 647 337 0 640 652 629 0 +13877787807814
46e-32 -693889390390723e-32 .028 0 0 1 1 0 0 50 629 334 0 610 647 606 0 +-.043 .
02985 .028 1 0 0 0 0 -1 50 606 333 0 627 629 604 0 +-.033 .0277 .028 0 1 0 0 0 1
 82 3 693 9 18 2 82 3 687 14 3 2 81 1 187 609 30 185 0 0 183 674 902 82 3 681 9
 12 2 81 1 183 607 30 181 0 0 190 187 903 82 3 902 9 27 0 81 1 190 603 30 168 0
 0 179 183 904 82 3 903 9 19 0 81 1 179 601 30 149 0 0 362 190 905 82 3 904 9 25
 0 81 1 362 590 30 359 0 0 365 179 906 82 3 905 9 17 0 81 1 365 587 30 363 0 0 3
68 362 907 82 3 906 9 47 1 81 1 368 584 30 366 0 0 390 365 908 82 3 907 9 33 1 8
1 1 390 581 30 388 0 0 357 368 909 82 3 908 9 41 1 81 1 357 578 30 355 0 0 387 3
90 910 82 3 909 9 13 1 81 1 387 575 30 385 0 0 383 357 911 82 3 910 9 37 1 81 1
 383 567 30 381 0 0 392 387 912 82 3 911 9 9 1 81 1 392 559 30 370 0 0 659 383 9
13 82 3 912 9 8 1 82 3 913 9 12 1 82 3 673 9 8 2 82 3 668 14 2 2 82 3 660 9 9 2
 81 1 155 458 30 153 0 0 159 649 914 82 3 654 9 6 2 81 1 159 456 30 157 0 0 151
 155 915 82 3 914 9 15 0 81 1 151 452 30 129 0 0 162 159 916 82 3 915 9 13 0 81
 1 162 444 30 148 0 0 403 151 917 82 3 916 9 11 0 81 1 403 432 30 401 0 0 400 16
2 918 82 3 917 9 9 0 81 1 400 429 30 397 0 0 422 403 919 82 3 918 9 27 1 81 1 42
2 426 30 420 0 0 406 400 920 82 3 919 9 29 1 81 1 406 423 30 404 0 0 426 422 921
 82 3 920 9 7 1 81 1 426 420 30 424 0 0 430 406 922 82 3 921 9 31 1 81 1 430 412
 30 428 0 0 418 426 923 82 3 922 9 6 1 81 1 418 404 30 408 0 0 395 430 924 82 3
 923 9 4 1 81 1 395 401 30 393 0 0 642 418 925 82 3 924 9 5 1 82 3 925 9 25 1 82
 3 648 9 2 2 82 3 643 9 5 2 82 3 637 18 2 2 81 1 139 305 30 137 0 0 135 624 926
 82 3 631 9 4 2 81 1 135 303 30 133 0 0 142 139 927 82 3 926 9 7 0 81 1 142 299
 30 128 0 0 131 135 928 82 3 927 9 5 0 81 1 131 291 30 109 0 0 440 142 929 82 3
 928 9 3 0 81 1 440 279 30 437 0 0 443 131 930 82 3 929 9 1 0 81 1 443 276 30 44
1 0 0 469 440 931 82 3 930 9 19 1 81 1 469 273 30 467 0 0 435 443 932 82 3 931 9
 21 1 81 1 435 270 30 433 0 0 465 469 933 82 3 932 9 3 1 81 1 465 267 30 463 0 0
 460 435 934 82 3 933 9 23 1 81 1 460 259 30 458 0 0 472 465 935 82 3 934 9 2 1
 81 1 472 251 30 448 0 0 446 460 936 82 3 935 9 0 1 81 1 446 248 30 444 0 0 616
 472 937 82 3 936 9 1 1 82 3 937 9 17 1 82 3 623 6 5 2 83 3 620 .615686274509804
 .811764705882353 .929411764705882 81 1 490 171 30 487 0 0 505 613 938 82 3 617
 6 4 2 81 1 505 170 30 503 0 0 482 490 939 82 3 938 6 11 1 81 1 482 169 30 478 0
 0 498 505 940 82 3 939 6 10 1 81 1 498 168 30 496 0 0 501 482 941 82 3 940 6 9
 1 81 1 501 166 30 499 0 0 494 498 942 82 3 941 6 8 1 81 1 494 164 30 462 0 0 51
0 501 943 82 3 942 6 6 1 81 1 510 163 30 509 0 0 511 494 944 82 3 943 6 4 1 82 3
 944 6 3 1 79 15 615 SDL/TYSA_COLOUR83 3 600 .615686274509804 .811764705882353 .
929411764705882 83 3 591 .615686274509804 .811764705882353 .929411764705882 81 1
 486 858 30 484 0 0 565 536 945 82 3 568 10 14 1 82 3 945 10 15 1 82 3 566 10 13
 1 17 530 0 534 59 116 92 491 487 0 0 -82 3 540 10 17 1 82 3 538 10 16 1 81 1 50
8 161 30 492 0 0 24 511 946 82 3 513 6 2 1 81 1 24 160 30 11 0 0 115 508 947 82
 3 946 6 1 1 81 1 115 159 30 113 0 0 100 24 948 82 3 947 6 0 1 81 1 100 158 30 9
8 0 0 119 115 949 82 3 948 6 7 0 81 1 119 157 30 117 0 0 104 100 950 82 3 949 6
 6 0 81 1 104 156 30 102 0 0 111 119 951 82 3 950 6 5 0 81 1 111 155 30 92 0 0 9
5 104 952 82 3 951 6 4 0 81 1 95 154 30 93 0 0 122 111 953 82 3 952 6 3 0 81 1 1
22 153 30 97 0 0 108 95 954 82 3 953 6 2 0 81 1 108 152 30 106 0 0 0 122 955 82
 3 954 6 1 0 82 3 955 6 0 0 81 1 281 1904 30 240 0 0 226 278 956 81 1 226 1903 3
0 275 0 0 32 281 957 81 1 278 1905 30 239 0 0 281 238 958 82 3 956 22 1 1 81 1 2
38 1906 30 229 0 0 278 273 959 82 3 958 22 2 1 81 1 273 1907 30 247 0 0 238 263
 960 82 3 959 22 3 1 81 1 263 1908 30 50 0 0 273 255 961 82 3 960 22 4 1 81 1 25
5 1909 30 38 0 0 263 253 962 82 3 961 22 5 1 82 3 962 22 6 1 82 3 957 22 0 1 82
 3 257 22 7 1 82 3 227 22 7 0 81 1 31 1900 30 223 0 0 44 27 963 81 1 44 1899 30
 217 0 0 40 31 964 82 3 963 22 5 0 82 3 964 22 4 0 82 3 45 22 3 0 82 3 33 22 6 0
 19 18 138 0 1 0 10 6 S0 74 4 CI16 index_map_offset0 0 1 dCCZ20 16 5 0 0 598 715
 14 2 804 0 0 0 0 0 0 0 0 0 0 0 0 0 0 0 80 1 13 587 965 8040 0 0 0 0 3 5 0 0 0 T
TTFFFFFFFFFFF2 83 3 15 .615686274509804 .811764705882353 .929411764705882 79 17
 965 SDL/TYSA_COLOUR_21 0 
