**ABCDEFGHIJKLMNOPQRSTUVWXYZabcdefghijklmnopqrstuvwxyz**************************
**PARASOLID !"#$%&'()*+,-./:;<=>?@[\]^_`{|}~0123456789**************************
**PART1;
MC=unknown;
MC_MODEL=unknown;
MC_ID=unknown;
OS=unknown;
OS_RELEASE=unknown;
FRU=Parasolid 31.0.249;
APPL=Onshape;
SITE=unknown;
USER=unknown;
FORMAT=text;
GUISE=transmit;
KEY=BTGapi::writeModels_.xmt;
FILE=BTGapi::writeModels_.xmt;
DATE=2019-02-08T19:06:41 (UTC);
**PART2;
SCH=SCH_3100249_31001;
USFLD_SIZE=0;
**PART3;
**END_OF_HEADER*****************************************************************
T51 : TRANSMIT FILE created by modeller version 310024923 SCH_3100249_31001_1300
6215 0 12 34 CCCCCCI4 mesh1006 0 I8 polyline1008 0 CCCCCCCDI5 owner1040 0 CCCCCC
I13 boundary_mesh1006 0 I17 boundary_polyline1008 0 CCCA16 index_map_offset0 0 1
 dA9 index_map82 0 A17 node_id_index_map82 0 A20 schema_embedding_map82 0 A5 chi
ld12 0 A14 lowest_node_id0 0 1 dA16 mesh_offset_data206 0 Z1 1422 2 3 0 0 0 0 0
 0 1e3 1e-8 0 4 5 1 0 1 1 6 7 8 9 0 0 10 11 12 0 0 0 0 0 0 0 81 255 1 2 1391 13
 1 14 0 0 0 15 70 11 CI9 list_type0 0 1 uI10 notransmit0 0 1 lCCCDCCDI12 finger_
index0 0 1 dI12 finger_block1012 0 CZ3 0 4 T1 0 0 5 20 1 16 16 13 255 6 260 0 1
 0 17 0 0 18 0 50 255 7 255 0 17 19 0 0 +0 .035 .03 1982541115402065e-31 -1 0 1
 1982541115402065e-31 0 31 255 8 747 0 11 20 0 0 +.055 .02 .002 0 0 1 1 0 0 .006
75 29 255 9 349 0 12 21 0 .068 -.033 .03 19 8 CCCCCCCA5 owner12 0 Z10 133 0 1 18
 0 22 V0 16 255 11 744 23 ?24 0 25 8 0 0 1 18 255 12 347 26 27 0 28 9 ?1 81 1 26
 493 29 12 0 0 30 31 32 17 255 27 0 33 34 35 12 36 37 0 38 +18 28 127 39 40 12 4
1 42 ?1 81 1 39 282 29 28 0 0 43 44 45 17 40 0 46 47 48 28 49 50 0 51 +18 41 122
 52 48 28 53 54 ?1 29 42 129 0 28 54 55 .07 .035 .03 29 54 124 0 41 56 42 .07 -.
035 .03 29 55 239 0 57 42 58 -.07 .035 0 18 57 227 59 60 61 62 55 ?1 29 58 238 0
 61 55 63 -.07 -.035 0 18 61 223 64 65 66 57 58 ?1 29 63 237 0 66 58 21 .07 -.03
5 0 18 66 219 67 68 69 61 63 ?1 29 21 236 0 69 63 9 .07 .035 0 18 69 215 43 70 7
1 66 21 ?1 81 1 43 281 29 69 0 0 52 39 72 17 70 0 73 51 74 69 75 76 0 77 +18 71
 112 78 79 53 69 80 ?1 81 1 78 276 29 71 0 0 59 64 81 17 79 0 82 83 84 71 85 86
 0 47 -18 53 117 87 85 41 71 56 ?1 29 80 114 0 71 88 56 -.07 .035 .03 29 88 481
 0 62 89 80 .068 -.033 .002 29 56 119 0 53 80 54 -.07 -.035 .03 18 62 429 90 91
 57 92 88 ?1 29 89 482 0 92 93 88 .068 .033 .002 18 92 433 94 95 62 96 89 ?1 29
 93 483 0 96 97 89 -.068 -.033 .002 18 96 425 98 99 92 100 93 ?1 29 97 484 0 100
 101 93 -.068 .033 .002 18 100 421 102 103 96 104 97 ?1 29 101 485 0 104 105 97
 .068 .033 .03 18 104 435 31 106 100 107 101 ?1 29 105 487 0 107 108 101 -.068 -
.033 .03 18 107 427 30 35 104 109 105 ?1 29 108 488 0 109 0 105 -.068 .033 .03 1
8 109 423 110 111 107 0 108 ?1 81 1 110 491 29 109 0 0 112 30 113 17 111 0 114 1
15 103 109 116 117 0 118 +15 255 114 448 0 103 119 0 17 115 0 114 120 111 107 12
1 122 0 36 +17 103 0 114 111 120 100 99 123 0 124 +17 116 0 125 126 118 100 111
 117 0 0 -16 117 389 127 ?111 128 129 130 0 0 1 17 118 0 125 116 106 109 131 132
 0 121 +15 125 444 0 126 133 134 17 106 0 125 118 126 104 135 136 0 137 +17 131
 0 138 139 121 104 118 132 0 0 -16 132 401 140 ?118 122 141 142 0 0 1 17 121 0 1
38 131 36 109 115 122 0 0 -15 138 363 0 131 143 46 17 36 0 138 121 139 107 27 37
 0 0 -16 122 406 144 ?115 37 132 145 0 0 1 81 1 144 503 29 122 0 0 146 147 148 1
6 37 411 149 ?27 150 122 151 0 0 1 30 255 145 479 0 122 142 151 0 +-.068 -138777
8780781446e-32 .03 0 -1 0 30 142 480 0 132 152 145 0 +0 .033 .03 -1 -20408511482
0801e-30 0 30 151 478 0 37 145 153 0 +0 -.033 .03 1 204085114820801e-30 0 30 153
 477 0 150 151 154 0 +.068 208166817117217e-31 .03 0 1 0 16 150 416 155 ?137 136
 37 153 0 0 1 30 154 476 0 136 153 156 0 +.068 .033 -.2278176211353315 0 0 1 16
 136 398 146 ?106 157 150 154 0 0 1 30 156 475 0 157 154 158 0 +.068 -.033 -.227
8176211353315 0 0 1 16 157 395 159 ?38 129 136 156 0 0 1 30 158 474 0 129 156 13
0 0 +-.068 -.033 -.2278176211353315 0 0 1 16 129 392 160 ?35 117 157 158 0 0 1 3
0 130 473 0 117 158 161 0 +-.068 .033 -.2278176211353315 0 0 1 30 161 472 0 162
 130 163 0 +.068 208166817117217e-31 .002 0 -1 0 16 162 380 164 ?165 166 167 161
 0 0 1 30 163 471 0 167 161 168 0 +0 -.033 .002 -1 -204085114820801e-30 0 16 167
 383 169 ?170 162 123 163 0 0 1 30 168 470 0 123 163 171 0 +-.068 -1387778780781
446e-32 .002 0 1 0 16 123 386 147 ?103 167 128 168 0 0 1 30 171 469 0 128 168 17
2 0 +0 .033 .002 1 204085114820801e-30 0 16 128 377 173 ?126 123 117 171 0 0 1 3
0 172 54 0 174 171 175 0 +0 .035 .03 -1 -1982541115402065e-31 0 16 174 52 176 ?4
7 86 76 172 0 0 1 30 175 59 0 86 172 177 0 +-.07 -1387778780781446e-32 .03 0 -1
 0 16 86 57 178 ?85 179 174 175 0 0 1 30 177 64 0 179 175 180 0 +0 -.035 .03 1 1
982541115402065e-31 0 16 179 62 181 ?48 50 86 177 0 0 1 30 180 69 0 50 177 182 0
 +.07 208166817117217e-31 .03 0 1 0 16 50 67 183 ?40 184 179 180 0 0 1 30 182 23
5 0 166 180 185 0 +0 .035 0 -1 -1982541115402065e-31 0 16 166 211 186 ?187 188 1
62 182 0 0 1 30 185 234 0 188 182 189 0 +-.07 -1387778780781446e-32 0 0 -1 0 16
 188 207 190 ?65 191 166 185 0 0 1 30 189 233 0 191 185 192 0 +0 -.035 0 1 19825
41115402065e-31 0 16 191 203 193 ?68 76 188 189 0 0 1 30 192 232 0 76 189 194 0
 +.07 208166817117217e-31 0 0 1 0 16 76 199 195 ?70 174 191 192 0 0 1 30 194 256
 0 184 192 196 0 +.07 .035 .03 0 0 -1 16 184 240 197 ?77 198 50 194 0 0 1 30 196
 257 0 198 194 199 0 +.07 -.035 .03 0 0 -1 16 198 241 200 ?74 201 184 196 0 0 1
 30 199 258 0 201 196 202 0 +-.07 -.035 .03 0 0 -1 16 201 242 203 ?204 205 198 1
99 0 0 1 30 202 259 0 205 199 206 0 +-.07 .035 .03 0 0 -1 16 205 243 44 ?83 207
 201 202 0 0 1 31 206 597 0 207 202 208 0 --.055 .02 .002 0 0 1 1 0 0 .00175 16
 207 594 209 ?210 211 205 206 0 0 1 31 208 664 0 211 206 20 0 --.055 -.02 .002 0
 0 1 1 0 0 .00175 16 211 661 212 ?213 25 207 208 0 0 1 31 20 671 0 25 208 8 0 +-
.055 -.02 .002 0 0 1 1 0 0 .00675 16 25 668 214 ?215 11 211 20 0 0 1 81 1 214 88
5 29 25 0 0 216 23 217 17 215 0 218 215 215 0 219 25 0 0 +15 218 701 0 215 220 0
 17 219 0 221 219 219 0 215 25 0 0 -15 221 670 0 219 222 0 14 255 222 672 223 ?2
24 225 226 6 227 +228 229 224 225 22 81 1 223 1396 230 222 231 0 232 233 234 14
 224 249 233 ?235 222 82 6 19 -0 0 235 222 22 14 225 449 232 ?222 236 33 6 237 -
0 0 222 236 22 15 226 812 0 238 222 239 50 227 463 0 222 240 241 0 +0 0 .002 0 0
 1 1 0 0 14 228 815 242 ?243 244 245 6 227 +246 222 243 244 22 14 229 437 247 ?2
20 248 249 6 227 +222 250 220 248 22 13 22 134 0 0 0 0 0 0 10 17 14 17 251 251 ?
133 0 252 6 7 -0 0 133 0 22 81 1 251 1392 230 17 253 0 0 254 255 14 133 441 254
 ?236 17 125 6 240 -0 0 236 17 22 15 252 250 0 187 17 256 17 187 0 252 257 77 57
 258 166 0 0 +15 256 1296 0 259 17 260 17 259 0 256 259 259 0 261 262 0 0 +15 26
0 1302 0 263 17 0 17 263 0 260 263 263 0 264 265 0 0 -17 264 0 266 264 264 0 263
 265 0 0 +16 265 1322 267 ?264 268 269 270 0 0 1 81 1 267 1381 29 265 0 0 271 27
2 273 16 268 1317 272 ?274 275 265 276 0 0 1 16 269 1346 277 ?278 265 262 279 0
 0 1 31 270 1376 0 265 276 279 0 +.034 .035 .015 -1982541115402065e-31 1 0 -1 -1
982541115402065e-31 0 .002175 31 276 1377 0 268 0 270 0 +.034 .033 .015 -1982541
115402065e-31 1 0 -1 -1982541115402065e-31 0 .002175 31 279 1375 0 269 270 280 0
 +-.034 .033 .015 1982541115402065e-31 -1 0 -1 -1982541115402065e-31 0 .002175 3
1 280 1374 0 262 279 281 0 +-.034 .035 .015 1982541115402065e-31 -1 0 -1 -198254
1115402065e-31 0 .002175 16 262 1341 282 ?259 269 0 280 0 0 1 31 281 1195 0 283
 280 284 0 +-.034 -.033 .015 1982541115402065e-31 -1 0 1 1982541115402065e-31 0
 .002175 16 283 1135 285 ?286 287 288 281 0 0 1 31 284 1194 0 288 281 289 0 +-.0
34 -.035 .015 1982541115402065e-31 -1 0 1 1982541115402065e-31 0 .002175 16 288
 1140 290 ?291 283 292 284 0 0 1 31 289 1193 0 292 284 293 0 +.034 -.033 .015 -1
982541115402065e-31 1 0 1 1982541115402065e-31 0 .002175 16 292 1164 294 ?295 28
8 275 289 0 0 1 31 293 1192 0 275 289 296 0 +.034 -.035 .015 -1982541115402065e-
31 1 0 1 1982541115402065e-31 0 .002175 16 275 1159 297 ?298 292 268 293 0 0 1 3
1 296 876 0 299 293 300 0 +.055 -.02 .007 0 0 1 1 0 0 .00675 16 299 844 301 ?302
 303 304 296 0 0 1 31 300 875 0 303 296 305 0 +.055 -.02 .007 0 0 -1 1 0 0 .0017
5 16 303 841 306 ?307 308 299 300 0 0 1 31 305 874 0 287 300 309 0 +.055 -.02 .0
02 0 0 1 1 0 0 .00675 16 287 836 310 ?311 304 283 305 0 0 1 31 309 873 0 304 305
 312 0 +.055 -.02 .002 0 0 -1 1 0 0 .00175 16 304 831 313 ?314 299 287 309 0 0 1
 31 312 802 0 315 309 316 0 +.055 .02 .007 0 0 -1 1 0 0 .00175 16 315 765 317 ?3
18 319 308 312 0 0 1 31 316 801 0 319 312 320 0 +.055 .02 .007 0 0 -1 1 0 0 .006
75 16 319 757 321 ?322 323 315 316 0 0 1 31 320 800 0 308 316 324 0 +.055 .02 .0
02 0 0 -1 1 0 0 .00175 16 308 760 325 ?326 315 303 320 0 0 1 31 324 726 0 323 32
0 327 0 +-.055 -.02 .007 0 0 -1 1 0 0 .00675 16 323 681 328 ?329 330 319 324 0 0
 1 31 327 725 0 330 324 331 0 +-.055 -.02 .007 0 0 1 1 0 0 .00175 16 330 684 332
 ?333 334 323 327 0 0 1 31 331 652 0 335 327 336 0 +-.055 .02 .007 0 0 1 1 0 0 .
00675 16 335 615 337 ?338 141 334 331 0 0 1 31 336 651 0 141 331 152 0 +-.055 .0
2 .007 0 0 1 1 0 0 .00175 16 141 607 339 ?340 132 335 336 0 0 1 31 152 650 0 334
 336 142 0 +-.055 .02 .002 0 0 1 1 0 0 .00675 16 334 610 216 ?341 335 330 152 0
 0 1 81 1 216 884 29 334 0 0 342 214 343 17 341 0 344 341 341 0 345 334 0 0 +15
 344 632 0 341 346 0 17 345 0 347 345 345 0 341 334 0 0 -15 347 588 0 345 222 22
1 14 346 628 348 ?248 349 350 6 351 -0 0 248 349 22 81 1 348 1404 230 346 352 0
 353 354 355 14 248 633 354 ?229 346 356 6 357 +0 0 229 346 22 14 349 623 353 ?3
46 358 359 6 360 +0 0 346 119 22 15 350 631 0 361 346 344 51 255 351 645 0 346 3
60 362 0 --.055 .02 .007 0 0 -1 .00675 -1 0 0 51 360 646 0 349 357 351 0 --.055
 .02 .007 0 0 -1 .00175 -1 0 0 50 362 467 0 358 351 237 0 +.068 208166817117217e
-31 -.2278176211353315 1 0 0 0 0 -1 14 358 453 363 ?349 119 364 6 362 -0 0 119 3
65 22 50 237 466 0 225 362 366 0 +0 -.033 -.2278176211353315 204085114820801e-30
 -1 0 1 204085114820801e-30 0 50 366 465 0 119 237 240 0 +-.068 -138777878078144
6e-32 -.2278176211353315 -1 0 0 0 0 1 14 119 445 367 ?358 365 114 6 366 -0 0 349
 358 22 50 240 464 0 133 366 227 0 +0 .033 -.2278176211353315 -204085114820801e-
30 1 0 -1 -204085114820801e-30 0 81 1 367 1401 230 119 368 0 369 363 370 14 365
 186 369 ?119 143 371 6 372 -0 0 358 143 22 81 1 369 1400 230 365 373 0 374 367
 375 14 143 1 374 ?365 235 138 6 241 +0 0 365 235 22 15 371 198 0 258 365 0 50 3
72 231 0 365 241 376 0 +0 0 0 0 0 1 1 0 0 50 241 3 0 143 227 372 0 +0 0 .03 0 0
 1 1 0 0 50 376 252 0 235 372 377 0 +.07 208166817117217e-31 .03 -1 0 0 0 0 1 14
 235 245 378 ?143 224 73 6 376 -0 0 143 224 22 50 377 253 0 236 376 19 0 +0 -.03
5 .03 -1982541115402065e-31 1 0 -1 -1982541115402065e-31 0 14 236 247 379 ?225 1
33 380 6 377 -0 0 225 133 22 50 19 254 0 224 377 7 0 +-.07 -1387778780781446e-32
 .03 1 0 0 0 0 -1 81 1 379 1394 230 236 381 0 254 232 382 15 380 246 0 68 236 38
3 17 68 0 380 384 204 66 385 191 0 74 +15 383 1114 0 298 236 386 17 298 0 383 29
8 298 0 387 275 0 0 +15 386 1120 0 388 236 0 17 388 0 386 388 388 0 291 288 0 0
 -17 291 0 389 291 291 0 388 288 0 0 +15 389 1149 0 291 390 0 14 390 1145 391 ?3
92 243 393 6 394 -0 0 392 243 22 81 1 391 1420 230 390 395 0 396 397 398 14 392
 1351 397 ?399 390 400 6 401 +0 0 399 390 22 14 243 1169 396 ?390 228 402 6 403
 +0 0 390 228 22 15 393 1148 0 404 390 389 51 394 1189 0 390 401 403 0 +-.034 -.
033 .015 1982541115402065e-31 -1 0 .002175 1 1982541115402065e-31 0 51 401 1368
 0 392 405 394 0 --.034 .033 .015 -1982541115402065e-31 1 0 .002175 -1 -19825411
15402065e-31 0 51 403 1186 0 243 394 406 0 -.034 -.033 .015 1982541115402065e-31
 -1 0 .002175 1 1982541115402065e-31 0 50 406 872 0 244 403 407 0 +0 69388939039
0723e-32 .007 0 0 1 1 0 0 14 244 857 408 ?228 409 410 6 406 +0 0 228 409 22 51 4
07 870 0 411 406 412 0 +.055 -.02 .007 0 0 -1 .00175 -1 0 0 14 411 847 413 ?409
 246 414 6 407 -0 0 409 246 22 51 412 869 0 409 407 415 0 -.055 -.02 .007 0 0 -1
 .00675 -1 0 0 14 409 852 416 ?244 411 417 6 412 -0 0 244 411 22 50 415 798 0 41
8 412 419 0 +0 693889390390723e-32 .007 0 0 1 1 0 0 14 418 783 420 ?246 421 422
 6 415 +0 0 246 421 22 51 419 796 0 423 415 424 0 +.055 .02 .007 0 0 -1 .00675 -
1 0 0 14 423 773 425 ?421 250 426 6 419 +0 0 421 250 22 51 424 795 0 421 419 427
 0 +.055 .02 .007 0 0 -1 .00175 -1 0 0 14 421 778 428 ?418 423 429 6 424 -0 0 41
8 423 22 50 427 722 0 430 424 431 0 +0 693889390390723e-32 .007 0 0 1 1 0 0 14 4
30 707 432 ?250 433 434 6 427 +0 0 250 433 22 51 431 720 0 433 427 435 0 --.055
 -.02 .007 0 0 -1 .00175 -1 0 0 14 433 702 436 ?430 220 437 6 431 +0 0 430 220 2
2 51 435 719 0 220 431 357 0 +-.055 -.02 .007 0 0 -1 .00675 -1 0 0 14 220 697 43
8 ?433 229 439 6 435 +0 0 433 229 22 50 357 648 0 248 435 360 0 +0 6938893903907
23e-32 .007 0 0 1 1 0 0 81 1 438 1407 230 220 440 0 247 436 441 15 439 700 0 329
 220 218 17 329 0 439 329 329 0 442 323 0 0 +17 442 0 434 442 442 0 329 323 0 0
 -15 434 710 0 442 430 443 15 443 711 0 444 430 0 17 444 0 443 444 444 0 333 330
 0 0 -17 333 0 437 333 333 0 444 330 0 0 +15 437 705 0 333 433 445 15 445 706 0
 213 433 0 17 213 0 445 213 213 0 446 211 0 0 +17 446 0 447 446 446 0 213 211 0
 0 -15 447 663 0 446 250 0 14 250 665 448 ?423 430 447 6 227 +229 246 423 430 22
 81 1 448 1410 230 250 449 0 432 425 450 14 246 741 451 ?411 418 452 6 227 +250
 228 411 418 22 81 1 451 1414 230 246 453 0 420 413 454 15 452 738 0 455 246 0 1
7 455 0 452 455 455 0 326 308 0 0 -17 326 0 456 326 326 0 455 308 0 0 +15 456 78
2 0 326 421 0 80 255 1 230 0 457 8001 0 0 0 0 3 5 0 0 0 FFFFTFTFFFFFFF2 81 1 453
 895 29 246 0 451 458 459 460 81 1 420 1413 230 418 461 0 428 451 462 81 1 413 1
415 230 411 463 0 451 416 464 83 255 3 454 .615686274509804 .811764705882353 .92
9411764705882 81 1 463 849 29 411 0 413 301 465 466 81 1 416 1416 230 409 465 0
 413 408 467 83 3 464 .615686274509804 .811764705882353 .929411764705882 81 1 46
5 854 29 409 0 416 463 468 469 81 1 408 1417 230 244 468 0 416 242 470 83 3 467
 .615686274509804 .811764705882353 .929411764705882 81 1 468 859 29 244 0 408 46
5 342 471 81 1 242 1418 230 228 459 0 408 396 472 83 3 470 .615686274509804 .811
764705882353 .929411764705882 81 1 459 896 29 228 0 242 453 290 473 81 1 396 141
9 230 243 474 0 242 391 475 83 3 472 .615686274509804 .811764705882353 .92941176
4705882 81 1 474 1204 29 243 0 396 395 381 476 83 3 475 .615686274509804 .811764
705882353 .929411764705882 80 1 29 477 478 9000 0 0 0 0 3 6 0 0 0 FFTFTFTTFFFFFF
1 81 1 395 1203 29 390 0 391 294 474 479 81 1 381 1205 29 236 0 379 474 271 480
 82 255 3 476 22 1 2 81 1 271 1206 29 225 0 232 381 267 481 82 3 480 22 2 2 81 1
 232 1395 230 225 271 0 379 223 482 82 3 481 22 3 2 83 3 482 .615686274509804 .8
11764705882353 .929411764705882 81 1 294 1202 29 292 0 0 297 395 483 82 3 479 22
 0 2 81 1 297 1201 29 275 0 0 285 294 484 82 3 483 22 3 1 81 1 285 1200 29 283 0
 0 290 297 485 82 3 484 22 2 1 81 1 290 1199 29 288 0 0 459 285 486 82 3 485 22
 1 1 82 3 486 22 0 1 79 255 9 478 BTI/DetId82 3 473 16 4 2 81 1 342 883 29 1 0 4
87 468 216 488 82 3 471 15 11 2 81 1 487 1389 489 1 342 14 0 0 490 82 3 488 8 0
 3 80 1 489 491 492 8038 0 0 0 0 0 0 0 0 0 TTTTTTTTTTTTTF10 81 1 14 1390 491 1 4
87 2 0 0 493 98 255 6 490 80 97 114 116 32 49 80 1 491 494 495 8017 0 0 0 0 0 0
 0 0 0 TTTTTTTTTTTTTF3 84 255 6 493 Part 179 13 495 SDL/TYSA_NAME79 14 492 SDL/T
YSA_UNAME82 3 469 15 9 2 81 1 301 846 29 299 0 0 306 463 496 82 3 466 15 15 2 81
 1 306 843 29 303 0 0 461 301 497 82 3 496 15 7 1 81 1 461 785 29 418 0 420 498
 306 499 82 3 497 15 15 1 81 1 498 780 29 421 0 428 500 461 501 82 3 499 15 8 2
 81 1 428 1412 230 421 498 0 425 420 502 81 1 500 775 29 423 0 425 317 498 503 8
2 3 501 15 14 2 81 1 425 1411 230 423 500 0 448 428 504 81 1 317 767 29 315 0 0
 321 500 505 82 3 503 15 6 2 81 1 321 759 29 319 0 0 506 317 507 82 3 505 15 13
 1 81 1 506 709 29 430 0 432 508 321 509 82 3 507 15 5 1 81 1 432 1409 230 430 5
06 0 436 448 510 81 1 508 704 29 433 0 436 440 506 511 82 3 509 15 5 2 81 1 436
 1408 230 433 508 0 438 432 512 81 1 440 699 29 220 0 438 332 508 513 82 3 511 1
5 12 2 81 1 332 686 29 330 0 0 328 440 514 82 3 513 15 3 2 81 1 328 683 29 323 0
 0 515 332 516 82 3 514 15 9 1 81 1 515 635 29 248 0 354 352 328 517 82 3 516 15
 3 1 81 1 354 1405 230 248 515 0 348 247 518 81 1 352 630 29 346 0 348 519 515 5
20 82 3 517 15 2 2 81 1 519 625 29 349 0 353 337 352 521 82 3 520 15 0 2 81 1 35
3 1403 230 349 519 0 363 348 522 81 1 337 617 29 335 0 0 339 519 523 82 3 521 15
 13 2 81 1 339 609 29 141 0 0 524 337 525 82 3 523 15 1 1 81 1 524 516 29 143 0
 374 526 339 527 82 3 525 15 11 1 81 1 374 1399 230 143 524 0 378 369 528 81 1 5
26 514 29 358 0 363 368 524 529 82 3 527 12 5 2 81 1 363 1402 230 358 526 0 367
 353 530 81 1 368 511 29 119 0 367 173 526 531 82 3 529 12 3 2 81 1 173 510 29 1
28 0 0 140 368 532 82 3 531 12 0 2 81 1 140 509 29 132 0 0 164 173 533 82 3 532
 12 11 1 81 1 164 508 29 162 0 0 155 140 534 82 3 533 12 10 1 81 1 155 507 29 15
0 0 0 169 164 535 82 3 534 12 9 1 81 1 169 506 29 167 0 0 149 155 536 82 3 535 1
2 8 1 81 1 149 505 29 37 0 0 147 169 537 82 3 536 12 7 1 81 1 147 504 29 123 0 0
 144 149 538 82 3 537 12 6 1 82 3 538 12 5 1 83 3 530 .615686274509804 .81176470
5882353 .929411764705882 81 1 378 1398 230 235 112 0 233 374 539 83 3 528 .61568
6274509804 .811764705882353 .929411764705882 81 1 112 299 29 235 0 378 373 110 5
40 81 1 233 1397 230 224 541 0 223 378 542 83 3 539 .615686274509804 .8117647058
82353 .929411764705882 81 1 541 295 29 224 0 233 176 373 543 83 3 542 .615686274
509804 .811764705882353 .929411764705882 81 1 176 294 29 174 0 0 186 541 544 81
 1 373 296 29 365 0 369 541 112 545 82 3 543 8 0 2 82 3 545 8 1 2 81 1 186 293 2
9 166 0 0 183 176 546 82 3 544 8 11 1 81 1 183 292 29 50 0 0 195 186 547 82 3 54
6 8 10 1 81 1 195 291 29 76 0 0 181 183 548 82 3 547 8 9 1 81 1 181 290 29 179 0
 0 193 195 549 82 3 548 8 8 1 81 1 193 289 29 191 0 0 178 181 550 82 3 549 8 7 1
 81 1 178 288 29 86 0 0 190 193 551 82 3 550 8 6 1 81 1 190 287 29 188 0 0 197 1
78 552 82 3 551 8 5 1 81 1 197 286 29 184 0 0 200 190 553 82 3 552 8 4 1 81 1 20
0 285 29 198 0 0 203 197 554 82 3 553 8 3 1 81 1 203 284 29 201 0 0 44 200 555 8
2 3 554 8 2 1 81 1 44 283 29 205 0 0 39 203 556 82 3 555 8 1 1 82 3 556 8 0 1 82
 3 540 8 4 2 83 3 522 .615686274509804 .811764705882353 .929411764705882 81 1 24
7 1406 230 229 458 0 354 438 557 83 3 518 .615686274509804 .811764705882353 .929
411764705882 81 1 458 894 29 229 0 247 449 453 558 83 3 557 .615686274509804 .81
1764705882353 .929411764705882 81 1 449 893 29 250 0 448 231 458 559 82 3 558 16
 2 2 81 1 231 892 29 222 0 223 313 449 560 82 3 559 16 1 2 81 1 313 891 29 304 0
 0 325 231 561 82 3 560 16 0 2 81 1 325 890 29 308 0 0 209 313 562 82 3 561 16 7
 1 81 1 209 889 29 207 0 0 212 325 563 82 3 562 16 6 1 81 1 212 888 29 211 0 0 3
10 209 564 82 3 563 16 5 1 81 1 310 887 29 287 0 0 23 212 565 82 3 564 16 4 1 81
 1 23 886 29 11 0 0 214 310 566 82 3 565 16 3 1 82 3 566 16 2 1 83 3 512 .615686
274509804 .811764705882353 .929411764705882 83 3 510 .615686274509804 .811764705
882353 .929411764705882 83 3 504 .615686274509804 .811764705882353 .929411764705
882 83 3 502 .615686274509804 .811764705882353 .929411764705882 83 3 462 .615686
274509804 .811764705882353 .929411764705882 82 3 460 16 3 2 79 15 457 SDL/TYSA_C
OLOUR83 3 450 .615686274509804 .811764705882353 .929411764705882 83 3 441 .61568
6274509804 .811764705882353 .929411764705882 15 429 781 0 567 421 456 17 567 0 4
29 567 567 0 318 315 0 0 -17 318 0 568 318 318 0 567 315 0 0 +15 568 787 0 318 4
18 0 15 426 776 0 322 423 569 17 322 0 426 322 322 0 570 319 0 0 +15 569 777 0 2
4 423 0 17 24 0 569 24 24 0 571 11 0 0 +17 571 0 239 571 571 0 24 11 0 0 -15 239
 746 0 571 222 572 15 572 440 0 124 222 347 17 124 0 572 99 95 100 126 128 0 116
 -17 99 0 572 91 124 96 103 123 0 170 -17 95 0 572 124 91 92 165 162 0 126 -17 1
26 0 125 106 116 92 124 128 0 135 +17 135 0 364 165 137 92 106 136 0 0 -15 364 4
56 0 165 358 0 17 165 0 364 38 135 62 95 162 0 34 +17 137 0 364 135 38 104 139 1
50 0 131 +17 38 0 364 137 165 12 34 157 0 139 +17 139 0 138 36 131 12 137 150 0
 0 -17 34 0 33 170 27 62 38 157 0 0 -15 33 452 0 170 225 573 17 170 0 33 35 34 9
6 91 167 0 120 +17 35 0 33 27 170 107 120 129 0 115 +17 91 0 572 95 99 62 170 16
7 0 165 -17 120 0 114 103 115 96 35 129 0 0 -15 573 1100 0 574 225 575 17 574 0
 573 574 574 0 295 292 0 0 -15 575 1106 0 286 225 0 17 286 0 575 286 286 0 404 2
83 0 0 +17 404 0 393 404 404 0 286 283 0 0 -17 295 0 402 295 295 0 574 292 0 0 +
15 402 1172 0 295 243 576 15 576 1173 0 387 243 0 17 387 0 576 387 387 0 298 275
 0 0 -17 570 0 422 570 570 0 322 319 0 0 -15 422 786 0 570 418 568 15 417 855 0
 577 409 578 17 577 0 417 577 577 0 302 299 0 0 -15 578 856 0 311 409 0 17 311 0
 578 311 311 0 238 287 0 0 +17 238 0 226 238 238 0 311 287 0 0 -17 302 0 579 302
 302 0 577 299 0 0 +15 579 861 0 302 244 0 15 414 850 0 580 411 581 17 580 0 414
 580 580 0 307 303 0 0 -15 581 851 0 314 411 0 17 314 0 581 314 314 0 582 304 0
 0 +17 582 0 245 582 582 0 314 304 0 0 -15 245 819 0 582 228 0 17 307 0 410 307
 307 0 580 303 0 0 +15 410 860 0 307 244 579 51 405 1371 0 399 0 401 0 +.034 .03
3 .015 -1982541115402065e-31 1 0 .002175 -1 -1982541115402065e-31 0 14 399 1327
 583 ?0 392 584 6 405 -0 0 0 392 22 81 1 583 1422 230 399 585 0 397 0 586 15 584
 1330 0 587 399 266 17 587 0 584 587 587 0 274 268 0 0 -15 266 1331 0 264 399 0
 17 274 0 588 274 274 0 587 268 0 0 +15 588 1288 0 274 133 0 81 1 585 1385 29 39
9 0 583 277 589 590 81 1 397 1421 230 392 589 0 391 583 591 83 3 586 .6156862745
09804 .811764705882353 .929411764705882 81 1 589 1386 29 392 0 397 585 253 592 8
3 3 591 .615686274509804 .811764705882353 .929411764705882 81 1 253 1387 29 17 0
 251 589 593 594 82 3 592 24 1 2 81 1 593 1388 29 133 0 254 253 0 595 82 3 594 2
4 2 2 81 1 254 1393 230 133 593 0 251 379 596 82 3 595 24 3 2 83 3 596 .61568627
4509804 .811764705882353 .929411764705882 81 1 277 1384 29 269 0 0 282 585 597 8
2 3 590 24 0 2 81 1 282 1383 29 262 0 0 272 277 598 82 3 597 24 3 1 81 1 272 138
2 29 268 0 0 267 282 599 82 3 598 24 2 1 82 3 599 24 1 1 15 400 1354 0 278 392 6
00 17 278 0 400 278 278 0 601 269 0 0 +15 600 1355 0 261 392 0 17 261 0 600 261
 261 0 259 262 0 0 -17 601 0 134 601 601 0 278 269 0 0 -15 134 1282 0 601 133 58
8 83 3 398 .615686274509804 .811764705882353 .929411764705882 17 384 0 380 602 6
8 41 74 198 0 49 -17 204 0 380 68 602 61 84 201 0 385 +17 385 0 371 60 75 61 68
 191 0 0 -17 74 0 73 70 49 66 384 198 0 75 +15 73 244 0 70 235 0 17 49 0 73 74 5
1 41 40 50 0 0 -17 75 0 371 385 258 66 70 76 0 0 -17 258 0 371 75 60 69 187 166
 0 0 -17 60 0 371 258 385 57 65 188 0 83 -17 65 0 82 84 83 61 60 188 0 204 +17 8
3 0 82 65 79 57 257 205 0 187 +15 82 248 0 65 224 0 17 257 0 252 603 187 71 83 2
05 0 0 -17 603 0 252 77 257 28 47 174 0 0 -17 77 0 252 187 603 69 51 184 0 258 +
17 47 0 46 85 40 71 603 174 0 257 +15 46 7 0 47 143 0 17 85 0 46 48 47 53 79 86
 0 84 +17 48 0 46 40 85 41 602 179 0 384 +17 84 0 82 79 65 53 204 201 0 602 -17
 602 0 380 204 384 53 48 179 0 0 -17 51 0 73 49 70 28 77 184 0 603 -83 3 382 .61
5686274509804 .811764705882353 .929411764705882 83 3 375 .615686274509804 .81176
4705882353 .929411764705882 83 3 370 .615686274509804 .811764705882353 .92941176
4705882 17 361 0 350 361 361 0 338 335 0 0 -17 338 0 604 338 338 0 361 335 0 0 +
15 604 637 0 338 248 0 15 359 626 0 340 349 605 17 340 0 359 340 340 0 606 141 0
 0 +15 605 627 0 210 349 0 17 210 0 605 210 210 0 607 207 0 0 +17 607 0 249 607
 607 0 210 207 0 0 -15 249 596 0 607 229 0 17 606 0 356 606 606 0 340 141 0 0 -1
5 356 636 0 606 248 604 83 3 355 .615686274509804 .811764705882353 .929411764705
882 82 3 343 16 0 1 82 3 273 24 0 1 83 3 255 .615686274509804 .811764705882353 .
929411764705882 83 3 234 .615686274509804 .811764705882353 .929411764705882 82 3
 217 16 1 1 81 1 160 500 29 129 0 0 127 159 608 81 1 127 499 29 117 0 0 94 160 6
09 81 1 159 501 29 157 0 0 160 146 610 82 3 608 12 1 1 81 1 146 502 29 136 0 0 1
59 144 611 82 3 610 12 2 1 82 3 611 12 3 1 81 1 94 498 29 92 0 0 90 127 612 82 3
 609 12 0 1 81 1 90 497 29 62 0 0 102 94 613 82 3 612 12 7 0 81 1 102 496 29 100
 0 0 98 90 614 82 3 613 12 6 0 81 1 98 495 29 96 0 0 31 102 615 82 3 614 12 5 0
 81 1 31 494 29 104 0 0 26 98 616 82 3 615 12 4 0 82 3 616 12 3 0 82 3 148 12 4
 1 81 1 30 492 29 107 0 0 110 26 617 82 3 113 12 0 0 82 3 617 12 1 0 81 1 87 278
 29 53 0 0 64 67 618 81 1 64 277 29 61 0 0 78 87 619 81 1 67 279 29 66 0 0 87 52
 620 82 3 618 8 3 0 81 1 52 280 29 41 0 0 67 43 621 82 3 620 8 4 0 82 3 621 8 5
 0 82 3 619 8 2 0 81 1 59 275 29 57 0 0 0 78 622 82 3 81 8 1 0 82 3 622 8 0 0 82
 3 72 8 6 0 82 3 45 8 7 0 82 3 32 12 2 0 19 18 261 0 1 0 10 6 S0 74 4 CI16 index
_map_offset0 0 1 dCCZ20 16 5 0 0 593 487 14 2 583 0 0 0 0 0 0 0 0 0 0 0 0 0 0 0
 80 1 13 230 623 8040 0 0 0 0 3 5 0 0 0 TTTFFFFFFFFFFF2 83 3 15 .615686274509804
 .811764705882353 .929411764705882 79 17 623 SDL/TYSA_COLOUR_21 0 
